<?xml version="1.0" encoding="iso-8859-1"?>
<!-- Generator: Adobe Illustrator 19.0.0, SVG Export Plug-In . SVG Version: 6.00 Build 0)  -->
<svg version="1.1" id="Capa_1" xmlns="http://www.w3.org/2000/svg" xmlns:xlink="http://www.w3.org/1999/xlink" x="0px" y="0px"
	 viewBox="0 0 421.376 421.376" style="enable-background:new 0 0 421.376 421.376;" xml:space="preserve">
<g>
	<g>
		<path d="M400.644,36.873c-0.173-0.006-0.347-0.009-0.521-0.009h-71.68V0h-30.72v37.376h-174.08V0h-30.72v37.376h-71.68
			c-8.483,0-15.36,6.877-15.36,15.36v353.28c0,8.483,6.877,15.36,15.36,15.36h378.88c8.483,0,15.36-6.877,15.36-15.36V52.736
			C415.766,44.258,409.123,37.155,400.644,36.873z M118.524,349.184h-46.08v-30.72h46.08V349.184z M118.524,287.744h-46.08v-30.72
			h46.08V287.744z M195.324,349.184h-46.08v-30.72h46.08V349.184z M195.324,287.744h-46.08v-30.72h46.08V287.744z M195.324,226.304
			h-46.08v-30.72h46.08V226.304z M272.124,349.184h-46.08v-30.72h46.08V349.184z M272.124,287.744h-46.08v-30.72h46.08V287.744z
			 M272.124,226.304h-46.08v-30.72h46.08V226.304z M348.924,287.744h-46.08v-30.72h46.08V287.744z M348.924,226.304h-46.08v-30.72
			h46.08V226.304z M384.764,123.904H36.604v-56.32h56.32v35.84h30.72v-35.84h174.08v35.84h30.72v-35.84h56.32V123.904z"/>
	</g>
</g>
<g>
</g>
<g>
</g>
<g>
</g>
<g>
</g>
<g>
</g>
<g>
</g>
<g>
</g>
<g>
</g>
<g>
</g>
<g>
</g>
<g>
</g>
<g>
</g>
<g>
</g>
<g>
</g>
<g>
</g>
</svg>
