<?xml version="1.0" encoding="iso-8859-1"?>
<!-- Generator: Adobe Illustrator 17.1.0, SVG Export Plug-In . SVG Version: 6.00 Build 0)  -->
<!DOCTYPE svg PUBLIC "-//W3C//DTD SVG 1.1//EN" "http://www.w3.org/Graphics/SVG/1.1/DTD/svg11.dtd">
<svg version="1.1" id="Capa_1" xmlns="http://www.w3.org/2000/svg" xmlns:xlink="http://www.w3.org/1999/xlink" x="0px" y="0px"
	 viewBox="0 0 442 442" style="enable-background:new 0 0 442 442;" xml:space="preserve">
<path d="M442,268.474V109.081c0.004-0.471-0.036-0.945-0.1-1.419c-0.012-0.091-0.025-0.182-0.04-0.272
	c-0.072-0.435-0.163-0.868-0.294-1.299c-0.003-0.009-0.007-0.018-0.01-0.027c-0.096-0.311-0.206-0.619-0.334-0.925
	c-0.037-0.088-0.083-0.168-0.122-0.255c-0.049-0.108-0.101-0.214-0.154-0.321c-0.17-0.343-0.355-0.674-0.559-0.989
	c-0.028-0.044-0.052-0.089-0.081-0.132c-0.247-0.369-0.518-0.714-0.806-1.041c-0.054-0.061-0.11-0.118-0.165-0.178
	c-0.267-0.289-0.548-0.561-0.844-0.813c-0.047-0.041-0.091-0.083-0.139-0.123c-0.335-0.275-0.688-0.524-1.053-0.752
	c-0.085-0.053-0.172-0.102-0.259-0.152c-0.339-0.198-0.688-0.378-1.047-0.535c-0.042-0.018-0.079-0.044-0.122-0.062L199.894,0.777
	c-0.022-0.009-0.044-0.015-0.066-0.024c-0.092-0.038-0.188-0.067-0.282-0.102c-1.447-0.545-2.944-0.74-4.396-0.611
	c-0.028,0.002-0.055,0.001-0.083,0.004c-0.661,0.064-1.311,0.193-1.942,0.384c-0.038,0.012-0.076,0.028-0.114,0.041
	c-0.276,0.087-0.55,0.184-0.817,0.294c-0.012,0.005-0.025,0.008-0.038,0.014l-69.22,29.042c-3.714,1.559-6.131,5.193-6.131,9.222
	s2.417,7.663,6.131,9.222l63.089,26.471v88.156L6.131,238.367c-0.126,0.053-0.242,0.118-0.364,0.175
	c-0.119,0.056-0.238,0.11-0.355,0.171c-0.284,0.146-0.557,0.305-0.821,0.475c-0.042,0.027-0.086,0.046-0.128,0.074
	c-0.01,0.007-0.018,0.015-0.028,0.021c-0.332,0.222-0.647,0.461-0.945,0.717c-0.031,0.026-0.058,0.055-0.088,0.082
	c-0.255,0.225-0.497,0.461-0.726,0.708c-0.068,0.073-0.132,0.148-0.198,0.223c-0.187,0.214-0.364,0.436-0.531,0.664
	c-0.063,0.085-0.126,0.169-0.186,0.256c-0.18,0.263-0.346,0.533-0.5,0.81c-0.028,0.051-0.061,0.099-0.088,0.15
	c-0.174,0.327-0.327,0.665-0.464,1.008c-0.037,0.093-0.066,0.188-0.1,0.283c-0.094,0.26-0.179,0.522-0.252,0.789
	c-0.031,0.116-0.06,0.231-0.087,0.348c-0.064,0.274-0.116,0.551-0.157,0.831c-0.014,0.093-0.031,0.186-0.042,0.28
	c-0.046,0.393-0.073,0.788-0.072,1.187v85.372c0,4.028,2.417,7.663,6.131,9.222l235.916,98.984c0.623,0.267,1.278,0.471,1.958,0.607
	c0.063,0.013,0.127,0.018,0.19,0.029c0.259,0.047,0.518,0.091,0.784,0.117c0.331,0.033,0.664,0.05,0.997,0.05
	s0.665-0.017,0.997-0.05c0.265-0.026,0.525-0.07,0.784-0.117c0.063-0.011,0.127-0.016,0.19-0.029c0.68-0.136,1.336-0.34,1.958-0.607
	l185.965-78.025c3.714-1.559,6.131-5.193,6.131-9.222v-85.371C442,268.544,442,268.508,442,268.474z M330.228,300.403
	l-63.151-26.496c-5.095-2.144-10.954,0.259-13.09,5.352s0.259,10.953,5.352,13.091l45.043,18.898l-58.405,24.505L137.62,290.29
	l58.404-24.505l35.524,14.905c5.094,2.137,10.954-0.26,13.09-5.353c2.137-5.093-0.259-10.953-5.352-13.091l-33.262-13.956V184.58
	l200.128,83.968L330.228,300.403z M186.024,248.291l-74.252,31.154l-75.924-31.856l150.176-63.009V248.291z M196.024,20.843
	l210.129,88.164l-43.373,18.199L199.959,58.89c-0.03-0.013-0.061-0.025-0.092-0.038l-47.216-19.811L196.024,20.843z
	 M358.838,147.241c1.256,0.539,2.598,0.81,3.942,0.81c1.314,0,2.629-0.259,3.869-0.778L422,124.048v129.458l-215.976-90.617V83.125
	L358.838,147.241z M20,262.629l215.976,90.618v63.711L20,326.341V262.629z M422,347.3l-166.024,69.658v-63.711L422,283.588V347.3z"
	/>
<g>
</g>
<g>
</g>
<g>
</g>
<g>
</g>
<g>
</g>
<g>
</g>
<g>
</g>
<g>
</g>
<g>
</g>
<g>
</g>
<g>
</g>
<g>
</g>
<g>
</g>
<g>
</g>
<g>
</g>
</svg>
