<?xml version="1.0" encoding="iso-8859-1"?>
<!-- Generator: Adobe Illustrator 19.0.0, SVG Export Plug-In . SVG Version: 6.00 Build 0)  -->
<svg version="1.1" id="Capa_1" xmlns="http://www.w3.org/2000/svg" xmlns:xlink="http://www.w3.org/1999/xlink" x="0px" y="0px"
	 viewBox="0 0 561 580" style="enable-background:new 0 0 561 580;" xml:space="preserve">
    <title>形状结合</title>
    <g id="Page-1" stroke-width="1" fill-rule="evenodd">
        <path d="M306.924605,0 L306.894112,0.486397036 C458.708964,9.2563505 570.82863,135.522996 560.089213,290 C549.349521,444.477004 419.673228,570.743649 266.638965,579.513603 L266.601829,580 L139.209564,580 L146.812511,470.639731 L274.65422,470.639731 L274.67664,470.336797 C370.001322,464.874382 450.776503,386.223289 457.466141,290 C464.088883,194.738943 395.705697,116.700397 302.580885,109.848977 L299.7514,109.663203 L299.771101,109.360269 L171.929393,109.360269 L179.53234,0 L306.924605,0 Z M138.264325,1.70530257e-13 L102.680924,511.253 L46.5685219,580 L0,511.166 L35.5766619,1.70530257e-13 L138.264325,1.70530257e-13 Z" id="形状结合"></path>
    </g>
</svg>
