<?xml version="1.0" encoding="iso-8859-1"?>
<!-- Generator: Adobe Illustrator 19.0.0, SVG Export Plug-In . SVG Version: 6.00 Build 0)  -->
<svg version="1.1" id="Capa_1" xmlns="http://www.w3.org/2000/svg" xmlns:xlink="http://www.w3.org/1999/xlink" x="0px" y="0px"
	 viewBox="0 0 512 512" style="enable-background:new 0 0 512 512;" xml:space="preserve">
<g>
	<g>
		<path d="M421,146V88.787L332.213,0H91v146H0.508v220H91v146h30V366h30v56h30v-56h30v146h30V366h30v56h30v-56h30v146h30V366h30v56
			h30v-56h90.492V146H421z M341,51.213L369.787,80H341V51.213z M121,30h190v80h80v36H121V30z M481.492,336H30.508V176h450.984V336z"
			/>
	</g>
</g>
<g>
	<g>
		<path d="M80.371,235.81c-11.022,0-19.99,8.967-19.99,19.99c0,11.022,8.967,19.989,19.99,19.989
			c11.022,0,19.989-8.967,19.989-19.989C100.36,244.777,91.393,235.81,80.371,235.81z"/>
	</g>
</g>
<g>
	<g>
		<path d="M150.224,235.81c-11.022,0-19.99,8.967-19.99,19.99c0,11.022,8.967,19.989,19.99,19.989
			c11.022,0,19.989-8.967,19.989-19.989C170.213,244.777,161.246,235.81,150.224,235.81z"/>
	</g>
</g>
<g>
	<g>
		<rect x="271" y="452" width="30" height="60"/>
	</g>
</g>
<g>
	<g>
		<rect x="391" y="452" width="30" height="60"/>
	</g>
</g>
<g>
	<g>
		<rect x="151" y="442" width="30" height="70"/>
	</g>
</g>
<g>
</g>
<g>
</g>
<g>
</g>
<g>
</g>
<g>
</g>
<g>
</g>
<g>
</g>
<g>
</g>
<g>
</g>
<g>
</g>
<g>
</g>
<g>
</g>
<g>
</g>
<g>
</g>
<g>
</g>
</svg>
